<svg width="105" height="16" viewBox="0 0 105 16" fill="none" xmlns="http://www.w3.org/2000/svg">
<path d="M8.35631 16C3.76175 16 0 12.422 0 8C0 3.60135 3.76175 0 8.35631 0C10.7852 0 13.0712 1.00247 14.6654 2.73566C15.1654 3.28279 15.094 4.12688 14.5225 4.60562C13.951 5.08436 13.0712 5.03937 12.5711 4.49224C11.4996 3.32958 9.97681 2.64567 8.35631 2.64567C5.2845 2.64567 2.76162 5.06097 2.76162 8.0018C2.76162 10.9642 5.2845 13.3579 8.35631 13.3579C9.8095 13.3579 11.1894 12.8108 12.2365 11.8767V9.84657H8.88081C8.11944 9.84657 7.49906 9.25444 7.49906 8.52373C7.49906 7.79303 8.11756 7.2009 8.88081 7.2009H13.6182C14.3796 7.2009 15 7.79303 15 8.52373V12.3987C15 12.7172 14.8816 13.0376 14.6673 13.2643C13.0712 15.0209 10.7852 16 8.35631 16Z" fill="white"/>
<path d="M32 14.6791C32 15.4069 31.3741 16 30.6018 16H21.3982C20.6278 16 20 15.4087 20 14.6791V1.34247C20 0.614624 20.6259 0 21.3982 0H30.6018C31.3722 0 32 0.614624 32 1.34247C32 2.07031 31.3741 2.66337 30.6018 2.66337H22.7964V6.35112H28.241C29.0114 6.35112 29.6392 6.94238 29.6392 7.69359C29.6392 8.42143 29.0133 9.01449 28.241 9.01449H22.7964V13.3366H30.6018C31.3722 13.3366 32 13.9279 32 14.6791Z" fill="white"/>
<path d="M48.6964 16C48.2915 16 47.9097 15.8185 47.6611 15.477L39.6089 5.14222V14.6789C39.6089 15.4069 39.0246 16 38.3036 16C37.5843 16 37 15.4087 37 14.6789V1.34262C37 0.77286 37.3605 0.273197 37.8773 0.0898674C38.4172 -0.11503 39.0015 0.0665019 39.3389 0.523029L47.3911 10.8578V1.34262C47.3911 0.591328 47.9754 0 48.6964 0C49.4157 0 50 0.591328 50 1.34262V14.6807C50 15.2271 49.6395 15.7286 49.1227 15.9101C48.9877 15.9784 48.8314 16 48.6964 16Z" fill="white"/>
<path fill-rule="evenodd" clip-rule="evenodd" d="M59.8082 16C64.3363 16 68 12.422 68 8C68 3.60135 64.3344 0 59.8064 0H56.3527C55.6063 0 55 0.593926 55 1.32283V14.6772C55 15.4079 55.6063 16 56.3527 16H59.8082ZM59.8082 2.64387C62.8417 2.64387 65.2927 5.05917 65.2927 8C65.2927 10.9642 62.8417 13.3561 59.8082 13.3561H57.7073V2.64387H59.8082Z" fill="white"/>
<path fill-rule="evenodd" clip-rule="evenodd" d="M84.3608 15.6347C84.9047 15.111 84.929 14.2904 84.4076 13.7433L81.6155 10.9846C83.6264 10.0506 85 8.06748 85 5.78923C85 2.59858 82.3014 0 78.9879 0H74.3717C73.6149 0 73 0.593859 73 1.32269V14.6773C73 15.4079 73.6149 16 74.3717 16C75.1305 16 75.7454 15.4061 75.7454 14.6773V11.5785H78.3954L82.4191 15.5897C82.6789 15.8632 83.034 16 83.4133 16C83.746 16 84.1011 15.8848 84.3608 15.6347ZM78.9879 8.93308H75.7454V2.64177H78.9879C80.7857 2.64177 82.2303 4.05444 82.2303 5.78743C82.2303 7.52041 80.7876 8.93308 78.9879 8.93308Z" fill="white"/>
<path fill-rule="evenodd" clip-rule="evenodd" d="M103.596 15.9986C103.786 15.9986 103.978 15.977 104.168 15.8852C104.859 15.5882 105.194 14.8144 104.884 14.1522L98.7576 0.797229C98.5431 0.296936 98.0425 0 97.4948 0C96.9472 0 96.4465 0.295137 96.232 0.797229L90.1061 14.1522C89.82 14.8144 90.1305 15.5882 90.8212 15.8852C91.5364 16.1821 92.3457 15.8852 92.6562 15.2013L94.0865 12.0556H100.903L102.333 15.2013C102.572 15.7016 103.071 15.9986 103.596 15.9986ZM97.4948 4.62501L99.6874 9.41198H95.3023L97.4948 4.62501Z" fill="white"/>
</svg>
